<svg xmlns="http://www.w3.org/2000/svg" viewBox="0 0 638.263 356.062"><title>casefolder</title><path d="M636.263,33.2V340.691a13.37,13.37,0,0,1-13.37,13.37H15.37A13.364,13.364,0,0,1,2,340.691V15.37A13.37,13.37,0,0,1,15.37,2H146.187a13.379,13.379,0,0,1,11.08,5.892l8.058,11.935H622.892A13.375,13.375,0,0,1,636.263,33.2Z" style="fill:#4d4d4d"/><path d="M636.263,33.2V340.691a13.37,13.37,0,0,1-13.37,13.37H15.37A13.364,13.364,0,0,1,2,340.691V15.37A13.37,13.37,0,0,1,15.37,2H146.187a13.379,13.379,0,0,1,11.08,5.892l8.058,11.935H622.892A13.375,13.375,0,0,1,636.263,33.2Z" style="fill:none;stroke:#fff;stroke-miterlimit:10;stroke-width:4px"/></svg>