<svg xmlns="http://www.w3.org/2000/svg" viewBox="0 0 64 64"><title>icons-ux</title><path d="M32,0A32,32,0,1,0,64,32,32,32,0,0,0,32,0ZM54.025,39.517C52.971,48.138,42.847,48.155,40.082,50.8a2.522,2.522,0,0,0-.188.194,13.176,13.176,0,0,1-10.044,3.935c-6.763-.31-13.042-5.789-13.368-12.55-.226-4.688,2.777-8.874,6.274-11.39l.128-.09a2.894,2.894,0,0,0,1.152-2.312V16.57h-.018a.439.439,0,0,1-.44-.44V14.837a4.576,4.576,0,0,1,4.576-4.576h.014a.475.475,0,0,0,.444-.628,1.958,1.958,0,1,1,3.736,0,.472.472,0,0,0,.442.624h.018a4.576,4.576,0,0,1,4.576,4.576V16.13a.439.439,0,0,1-.432.44v7.294a1.082,1.082,0,0,0,1.3,1.058c3.676-.72,3.4-4.651,3.071-7.312-.32-2.624,1.24-3.464,2.6-3.464a.368.368,0,0,1,.047,0v0h2.076c0,.283-.357.316-.716.987a7.962,7.962,0,0,0-.8,4.31c.116,3.055.956,6.123.053,9.143-.966,3.238-2.706,4.227-3.4,5.379C42.839,35.2,44.23,31.938,48,31.938S54.531,35.37,54.025,39.517Z" style="fill:#ff4338"/><path d="M48.157,34.46A5.028,5.028,0,0,0,42.986,37.9c-.012.037-.024.075-.031.112a12.514,12.514,0,0,1,.736,3.713,13.219,13.219,0,0,1-.341,3,2.2,2.2,0,0,0,1.735.836,6.724,6.724,0,0,0,6.411-5.583C52.025,37.015,50.867,34.46,48.157,34.46Z" style="fill:#ff4338"/></svg>