<svg xmlns="http://www.w3.org/2000/svg" viewBox="0 0 64 64"><title>icons-hp</title><path d="M35.038,43.034c-.14.035-.3-.054-.477-.267s-.241-.391-.187-.534a.385.385,0,0,1-.187.24,2.523,2.523,0,0,0-.479-.4,2.571,2.571,0,0,1-.48-.4c-.035-.053-.085-.128-.147-.227s-.141-.225-.24-.385a2.743,2.743,0,0,1-.212-.414c-.045-.117-.048-.182-.013-.2a1.82,1.82,0,0,1-1.466-.294,2.578,2.578,0,0,1-.559-.559.864.864,0,0,0-.773-.4c-.09.018-.209.048-.361.092a1.388,1.388,0,0,1-.385.065,1.249,1.249,0,0,1-.428-.105,3.592,3.592,0,0,1-.572-.307,3.659,3.659,0,0,0-.493-.279l-.346-.187-.426-.213a1.335,1.335,0,0,1-.332-.254.824.824,0,0,1-.227-.359,5.12,5.12,0,0,1-.132-.64,2.006,2.006,0,0,0-.214-.692,2.4,2.4,0,0,0-.454-.533.837.837,0,0,0-.531-.267q.213,0,0-.359a2.708,2.708,0,0,0-.374-.521c-.035-.035-.142-.15-.319-.347s-.329-.362-.453-.506a2.1,2.1,0,0,1-.319-.492.568.568,0,0,1-.054-.468c.019-.018,0-.043-.053-.078a1.2,1.2,0,0,0-.2-.107c-.08-.035-.155-.067-.227-.094a.536.536,0,0,0-.16-.04,2.128,2.128,0,0,1,.12.387,1.555,1.555,0,0,0,.147.413q.053.108.453.773a3.143,3.143,0,0,1,.639,1.653c-.107.035-.177.018-.213-.054a.925.925,0,0,1-.08-.292,1.927,1.927,0,0,0-.054-.267.989.989,0,0,0-.414-.347.9.9,0,0,1-.412-.374.13.13,0,0,0,.067-.025.116.116,0,0,1,.066-.027.913.913,0,0,0-.28-.613c-.2-.249-.287-.426-.252-.533a1.3,1.3,0,0,1-.374-.626,2.33,2.33,0,0,0-.267-.6,1.1,1.1,0,0,0-.267-.279c-.105-.08-.24-.169-.4-.267s-.267-.165-.319-.2a1.049,1.049,0,0,1-.214-.24q-.879-1.066-.532-1.146c-.231.054-.421-.12-.573-.519a1.661,1.661,0,0,1-.147-.92l-.053-.025a3.989,3.989,0,0,0,.027-.628,6.292,6.292,0,0,1,.065-.945q.067-.426.254-.426c-.125.018-.217-.094-.28-.334a.714.714,0,0,1-.014-.492c.018-.054.1-.018.241.105a1.442,1.442,0,0,1,.24.24q.345-.186.267-.479a3.761,3.761,0,0,0-.56-.559,9.73,9.73,0,0,0-1.172-.72.375.375,0,0,0-.08-.506c-.177.107-.28.132-.307.08a.972.972,0,0,1-.067-.292c-.018-.142-.063-.222-.132-.24a.72.72,0,0,1-.321-.214,16.818,16.818,0,0,1,6.263-5.915,4.289,4.289,0,0,1,.586-.027,1.056,1.056,0,0,1,.4.134,2.074,2.074,0,0,1,.386.292,3.9,3.9,0,0,0,.307.267.656.656,0,0,0-.134-.48c.035-.105.231-.213.586-.32a1.51,1.51,0,0,1,.8.027,7.164,7.164,0,0,0-.534-.666l-.132.132q-.213-.187-1.12.187c-.035.018-.124.065-.267.146a3.045,3.045,0,0,1-.347.174.661.661,0,0,1-.319.027,15.058,15.058,0,0,1,2.5-1.094,2.51,2.51,0,0,1,.267.227q.186.172.294.254c-.054-.037-.089-.019-.107.053a.679.679,0,0,0,0,.533.491.491,0,0,0,.359.213A1.936,1.936,0,0,0,27.9,17.1a3.4,3.4,0,0,1,.426-.052l.267.027q.852.079.666-.16a1.635,1.635,0,0,1,.187.439,1.174,1.174,0,0,0,.24.466c.089-.072.107-.195.054-.374s-.054-.3,0-.372a.3.3,0,0,1,.16-.107l.307-.12c.115-.045.19-.075.227-.092.105-.072.035-.2-.214-.374a1.7,1.7,0,0,0-.227-.08c-.115-.035-.217-.072-.307-.107a1.679,1.679,0,0,1-.28-.147.223.223,0,0,1-.132-.212.707.707,0,0,1,.145-.307.734.734,0,0,1,.521-.107,1.307,1.307,0,0,1,.546.134q.719.4.212.719a1.918,1.918,0,0,1,.641.214c.249.125.346.257.294.4.142-.267.283-.4.426-.4.088.018.172.137.252.359a2.135,2.135,0,0,0,.147.359c.142.2.282.24.426.134a2.232,2.232,0,0,0,.439-.466c.152-.2.235-.3.252-.28-.177-.072-.195-.142-.053-.214a.855.855,0,0,1,.72-.133,1,1,0,0,1,.213.24q.239.48-.08.454a.58.58,0,0,1,.2.532c-.027.214-.165.311-.414.294a.937.937,0,0,1-.386-.134,1.182,1.182,0,0,0-.387-.145.644.644,0,0,0-.374.145,3.455,3.455,0,0,0-.279.454,2.037,2.037,0,0,1-.307.453,1.57,1.57,0,0,1-1.332.292c.053,0,.048.054-.014.159a3.06,3.06,0,0,1-.253.361c-.107.132-.169.208-.187.225a1.368,1.368,0,0,0-.319.613c0,.035-.009.157-.027.359a1.3,1.3,0,0,1-.107.466c.214-.053.382.054.506.321.107.249.107.381,0,.4a3.154,3.154,0,0,1,1.546.107q.96.347,1.094.693c.105-.159.363-.169.771-.027.16.088.3.356.426.8a1.724,1.724,0,0,0,.361.693.435.435,0,0,0,.546.16l.08-.053c.07-.035.128-.067.173-.093a1.281,1.281,0,0,0,.147-.107.26.26,0,0,0,.093-.12.115.115,0,0,0-.04-.107.964.964,0,0,1-.279-.439.559.559,0,0,1,.04-.493,1.818,1.818,0,0,1,.426-.319.96.96,0,0,0,.426-.426.47.47,0,0,0-.265-.574c-.249-.152-.374-.289-.374-.413a.523.523,0,0,1,.173-.32.419.419,0,0,0,.147-.346,1.331,1.331,0,0,0-.093-.334,1.746,1.746,0,0,1-.107-.372.387.387,0,0,1,.12-.28,1.637,1.637,0,0,1,.878.013,3,3,0,0,1,.907.252,2.252,2.252,0,0,0,.346.16,3.321,3.321,0,0,1,.466.227c.132.08.209.155.225.227H38.8a.641.641,0,0,1,.226.374c.027.142-.04.247-.2.319a.853.853,0,0,1,.426.08c.284.107.294.2.027.294a1.457,1.457,0,0,1,.225-.054.61.61,0,0,0,.227-.08.709.709,0,0,0,.132-.092.457.457,0,0,1,.12-.08.861.861,0,0,1,.121-.027.219.219,0,0,1,.158.04c.019,0,.059-.045.121-.133s.128-.179.2-.267.134-.132.187-.132a.2.2,0,0,1,.147.065.575.575,0,0,1,.107.147c.026.053.053.112.078.172s.05.112.067.147a.7.7,0,0,0,.252.279.708.708,0,0,1,.254.28c.018.054.053.187.105.4a.877.877,0,0,0,.214.439,1.029,1.029,0,0,0,.4.2.413.413,0,0,0,.24-.027.646.646,0,0,1,.307-.025c.08.018.12.088.12.212.107-.107.159-.177.159-.212a1.115,1.115,0,0,0,.174.559.473.473,0,0,0,.466.187L43.8,23.9a.592.592,0,0,1-.4.2,1.475,1.475,0,0,0-.4.12,1.825,1.825,0,0,0-.385.319c-.2.2-.289.312-.254.347A1.3,1.3,0,0,0,41,24.593a6.715,6.715,0,0,0-1.385.319,1.938,1.938,0,0,0-.586.4.787.787,0,0,0-.094.187c-.045.107-.088.2-.133.294s-.085.133-.12.133a.684.684,0,0,0,.359-.252,1.522,1.522,0,0,1,.254-.254,1.432,1.432,0,0,1,1.147-.318q.587.161.187.426c-.035.035-.13.049-.28.04a.932.932,0,0,0-.307.014,1.438,1.438,0,0,1,.4.145.173.173,0,0,1,.08.254c.284.16.339.337.16.534a.965.965,0,0,1-.826.292c.054,0,.054.035,0,.107l-.453.292c-.035.017-.15.062-.347.134a.9.9,0,0,0-.4.24.53.53,0,0,0-.08.319,1.447,1.447,0,0,1-.027.321c-.018.07-.088.088-.213.053-.054.107-.217.192-.493.252a.907.907,0,0,0-.546.28.306.306,0,0,1-.027.426.34.34,0,0,1-.559-.053.383.383,0,0,0-.2.267.5.5,0,0,1-.2.294c.125.195.105.337-.053.426a.365.365,0,0,1,.12.053,2.215,2.215,0,0,1,.2.133.378.378,0,0,0,.133.081c-.07.158-.169.238-.294.238.107.286-.026.6-.4.934a1.226,1.226,0,0,1-.332.213c-.152.07-.289.129-.414.172a.879.879,0,0,0-.214.094,1.819,1.819,0,0,0-.4.493.571.571,0,0,0-.04.492.6.6,0,0,0,.493.321l.025.212v.479l.027.214c.018.125.032.235.04.334a2.791,2.791,0,0,1,0,.372c-.008.152-.048.236-.12.252A.479.479,0,0,1,34.8,35.2c-.143-.07-.311-.462-.508-1.172a1.776,1.776,0,0,0-.319-.639.834.834,0,0,1-.227.172c-.061.027-.105.032-.132.013a1.772,1.772,0,0,1-.147-.12,2.009,2.009,0,0,0-.185-.146,1.425,1.425,0,0,0-.468-.134.867.867,0,0,1-.412-.132c-.426.321-.685.24-.773-.24a.559.559,0,0,0,.013.359,2.184,2.184,0,0,1,.067.254c-.125.231-.319.249-.586.053-.107-.105-.351-.12-.733-.04a1.535,1.535,0,0,1-.758.04c.018,0,.053.027.105.08a.73.73,0,0,1,.107.08.333.333,0,0,1-.08.16.115.115,0,0,1-.107.04.3.3,0,0,0-.12,0,.436.436,0,0,0-.12.04,1.663,1.663,0,0,0-.267.28,1.388,1.388,0,0,1-.24.252,1.76,1.76,0,0,1,.147.653q-.014.228-.08.666a4.948,4.948,0,0,0-.067.706,2.47,2.47,0,0,0,.252.987,1.7,1.7,0,0,0,.6.773,2.267,2.267,0,0,0,1.279.08.7.7,0,0,0,.24-.187.924.924,0,0,0,.132-.307c.035-.132.062-.225.08-.279a.74.74,0,0,1,.693-.534.772.772,0,0,1,.466.067.235.235,0,0,1,.12.252,1.335,1.335,0,0,1-.105.334c-.054.117-.121.244-.2.386a1.526,1.526,0,0,0-.145.321,4.483,4.483,0,0,0-.093.6,3.356,3.356,0,0,1-.067.466,1.509,1.509,0,0,0,.4.027.615.615,0,0,1,.04-.173.71.71,0,0,0,.04-.147.528.528,0,0,0,.426.24.4.4,0,0,0,.426-.214c.037.054.142.187.321.4a1.139,1.139,0,0,1,.292.533c.018.07.053.186.107.347a.673.673,0,0,1,.053.334c-.018.061-.107.093-.267.093a.123.123,0,0,0-.132.08.382.382,0,0,0,0,.2,1.645,1.645,0,0,0,.067.227,1.775,1.775,0,0,0,.105.225.473.473,0,0,1,.067.147.9.9,0,0,0,1.306.479Q35.412,42.955,35.038,43.034Zm8.6.5A4.084,4.084,0,0,0,43,43.325a.528.528,0,0,0-.067-.348.714.714,0,0,0-.213-.238c-.08-.054-.192-.125-.334-.214s-.24-.152-.294-.187a2.213,2.213,0,0,0-.185-.158c-.09-.072-.152-.121-.187-.147a1.708,1.708,0,0,0-.2-.12.3.3,0,0,0-.227-.054.865.865,0,0,1-.265.027l-.08.027a.78.78,0,0,0-.147.065c-.045.027-.093.054-.146.08a.28.28,0,0,0-.107.08.05.05,0,0,0,0,.067,3.329,3.329,0,0,0-.959-.586.773.773,0,0,1-.294-.145,1.988,1.988,0,0,0-.28-.187.374.374,0,0,0-.265-.04.609.609,0,0,0-.307.185.638.638,0,0,0-.16.4,1.871,1.871,0,0,1-.054.346q-.187-.134,0-.466t.054-.493a.228.228,0,0,0-.279-.12.92.92,0,0,0-.321.12c-.08.053-.182.129-.307.227a1.94,1.94,0,0,1-.24.172,2.529,2.529,0,0,0-.225.147.851.851,0,0,0-.227.2,1.308,1.308,0,0,0-.159.319,1.783,1.783,0,0,1-.133.294c-.036-.072-.139-.129-.307-.174s-.254-.092-.254-.145a9.213,9.213,0,0,1,.107.932,7.563,7.563,0,0,0,.132,1.013,1.227,1.227,0,0,1-.319,1.279,2.2,2.2,0,0,0-.773,1.065q-.1.587.321.693a1.234,1.234,0,0,1-.214.546.972.972,0,0,0-.185.574,2.174,2.174,0,0,0,.051.426,16.479,16.479,0,0,0,9.352-5.038.652.652,0,0,0-.334-.12A.951.951,0,0,1,43.642,43.537ZM64,32A32,32,0,1,1,32,0,32,32,0,0,1,64,32ZM52.464,32A20.03,20.03,0,0,0,49.72,21.728a20.375,20.375,0,0,0-7.448-7.447,20.589,20.589,0,0,0-20.543,0,20.36,20.36,0,0,0-7.448,7.447,20.592,20.592,0,0,0,0,20.545,20.368,20.368,0,0,0,7.447,7.447,20.592,20.592,0,0,0,20.545,0,20.372,20.372,0,0,0,7.448-7.447A20.033,20.033,0,0,0,52.464,32Z" style="fill:#ff4338"/></svg>