<svg xmlns="http://www.w3.org/2000/svg" viewBox="0 0 64 64"><title>icons-ui</title><path d="M21.143,36.738a1.142,1.142,0,0,0-.851.355,1.2,1.2,0,0,0,1.69,1.69,1.2,1.2,0,0,0-.839-2.045Z" style="fill:#ff4338"/><path d="M32,0A32,32,0,1,0,64,32,32,32,0,0,0,32,0ZM25.326,40.325a1.212,1.212,0,0,1-1.2,1.2H18.752a1.212,1.212,0,0,1-1.2-1.2V28.37a1.212,1.212,0,0,1,1.2-1.2h5.379a1.212,1.212,0,0,1,1.2,1.2Zm21.368-7.753a3.873,3.873,0,0,1-.8,2.559,3.84,3.84,0,0,1,0,2.185,3.633,3.633,0,0,1-1.008,1.755,4.488,4.488,0,0,1-.916,3.381,4.637,4.637,0,0,1-3.68,1.458H37.878a13.828,13.828,0,0,1-2.69-.29,23.24,23.24,0,0,1-2.269-.542q-.813-.252-2.25-.738a13.711,13.711,0,0,0-2.952-.822,1.236,1.236,0,0,1-.841-.364,1.118,1.118,0,0,1-.355-.831V28.351a1.13,1.13,0,0,1,.337-.813,1.221,1.221,0,0,1,.8-.383q.448-.039,1.419-1.1t1.888-2.26a27.608,27.608,0,0,1,1.886-2.241,2.865,2.865,0,0,0,.579-.9,5.972,5.972,0,0,0,.327-.906q.084-.344.253-1.129.129-.729.233-1.14a5.536,5.536,0,0,1,.365-.972,3.235,3.235,0,0,1,.635-.933,1.149,1.149,0,0,1,.841-.355,5.575,5.575,0,0,1,1.542.2,4.083,4.083,0,0,1,1.121.486,2.6,2.6,0,0,1,.748.757,4.323,4.323,0,0,1,.448.84,4.728,4.728,0,0,1,.224.933,8.268,8.268,0,0,1,.094.842c.005.186.009.429.009.728a5.621,5.621,0,0,1-.187,1.43,7.257,7.257,0,0,1-.355,1.093q-.168.373-.5,1.065c-.038.075-.1.187-.187.337a3.18,3.18,0,0,0-.2.411,4.624,4.624,0,0,0-.15.448h5.174a3.415,3.415,0,0,1,2.512,1.065,3.53,3.53,0,0,1,1.075,2.522,4.012,4.012,0,0,1-1.029,2.783A4.4,4.4,0,0,1,46.694,32.572Z" style="fill:#ff4338"/></svg>