<svg xmlns="http://www.w3.org/2000/svg" viewBox="0 0 43.567 44.029"><title>logo_D</title><path d="M43.435,17.36q-.5-8.238-5.155-12.8T24.635,0H9.1A1.626,1.626,0,0,0,7.9.5a1.642,1.642,0,0,0-.5,1.2V7.861H24.32q5.155,0,7.766,2.581a10.165,10.165,0,0,1,2.859,6.918c.088,1.053.124,2.6.124,4.658s-.037,3.605-.124,4.651a10.279,10.279,0,0,1-2.8,6.918q-2.545,2.578-7.51,2.581H7.4v6.164a1.723,1.723,0,0,0,1.7,1.7H24.949q8.8,0,13.4-4.563t5.09-12.8q.132-1.569.132-4.651T43.435,17.36Zm-28.689,14.6a1.113,1.113,0,0,1-1.1,1.1H8.514a1.113,1.113,0,0,1-1.1-1.1V25.241H1.1a1.055,1.055,0,0,1-.774-.326A1.053,1.053,0,0,1,0,24.141V20.027a1.056,1.056,0,0,1,.326-.774,1.057,1.057,0,0,1,.774-.326H7.414V12.206a1.113,1.113,0,0,1,1.1-1.1h5.133a1.113,1.113,0,0,1,1.1,1.1v6.721h6.273a1.113,1.113,0,0,1,1.1,1.1v4.114a1.113,1.113,0,0,1-1.1,1.1H14.746Z" style="fill:#ff4338"/></svg>