<svg xmlns="http://www.w3.org/2000/svg" viewBox="0 0 479.154 45.284"><title>logo_full</title><path d="M50.888,36.794H71.706a1.719,1.719,0,0,1,1.7,1.7v4.465a1.719,1.719,0,0,1-1.7,1.7H44.1a1.717,1.717,0,0,1-1.7-1.7V2.327a1.63,1.63,0,0,1,.5-1.2,1.632,1.632,0,0,1,1.2-.5H71.2a1.635,1.635,0,0,1,1.2.5,1.636,1.636,0,0,1,.5,1.2V6.793a1.717,1.717,0,0,1-1.7,1.7H50.888v10H69.82a1.719,1.719,0,0,1,1.7,1.7v4.465a1.719,1.719,0,0,1-1.7,1.7H50.888Z" style="fill:#ff4338"/><path d="M112.1,12.8a1.769,1.769,0,0,1-1.258.472h-4.4a2.812,2.812,0,0,1-1.572-.377,3.35,3.35,0,0,1-1.006-1.132,7.78,7.78,0,0,0-3.081-2.83A11.756,11.756,0,0,0,95.3,7.862a11.024,11.024,0,0,0-5.723,1.384,4.181,4.181,0,0,0-2.327,3.711,3.823,3.823,0,0,0,1.1,2.924,8.525,8.525,0,0,0,3.428,1.73q2.327.693,7.61,1.824Q107,21.071,110.4,24.026a10.2,10.2,0,0,1,3.4,8.113,11.11,11.11,0,0,1-2.2,6.761,14.453,14.453,0,0,1-6.321,4.686,27.379,27.379,0,0,1-18.46.189,16.237,16.237,0,0,1-6.6-4.308A10.111,10.111,0,0,1,77.5,33.083a1.426,1.426,0,0,1,.441-1.226,1.766,1.766,0,0,1,1.258-.472h4.4a2.976,2.976,0,0,1,1.6.377,2.75,2.75,0,0,1,.975,1.132A8.122,8.122,0,0,0,89.3,36.2q2.044,1.226,6.321,1.226a16.034,16.034,0,0,0,6.918-1.321A4.231,4.231,0,0,0,105.3,32.14a3.027,3.027,0,0,0-1.069-2.422,8.485,8.485,0,0,0-3.019-1.51q-1.95-.6-5.912-1.541-1.572-.314-4.088-.943-6.6-1.635-9.528-4.466t-2.924-8.3A10.992,10.992,0,0,1,80.932,6.29a14.4,14.4,0,0,1,5.944-4.623A20.651,20.651,0,0,1,95.3,0a21.6,21.6,0,0,1,9.151,1.792,14.988,14.988,0,0,1,5.881,4.5,10.176,10.176,0,0,1,2.2,5.283A1.432,1.432,0,0,1,112.1,12.8Z" style="fill:#ff4338"/><path d="M120,44.152a1.628,1.628,0,0,1-.5-1.2V2.327a1.631,1.631,0,0,1,.5-1.2,1.63,1.63,0,0,1,1.195-.5h5.095a1.634,1.634,0,0,1,1.195.5,1.634,1.634,0,0,1,.5,1.2v40.63a1.719,1.719,0,0,1-1.7,1.7h-5.095A1.628,1.628,0,0,1,120,44.152Z" style="fill:#ff4338"/><path d="M164.839,2.138a14.5,14.5,0,0,1,5.881,5,12.1,12.1,0,0,1,1.95,5.314,1.43,1.43,0,0,1-.441,1.226,1.766,1.766,0,0,1-1.258.472h-5.095a1.818,1.818,0,0,1-1.7-1.069q-2.83-5.22-10.126-5.22a10.881,10.881,0,0,0-7.516,2.547,9.263,9.263,0,0,0-3.05,6.824q-.064,1.572-.063,5.095,0,3.585.063,5.157.189,5.032,2.956,7.484a11.069,11.069,0,0,0,7.61,2.453q10.628,0,10.63-9.686v-.5h-7.673a1.717,1.717,0,0,1-1.7-1.7V21.07a1.717,1.717,0,0,1,1.7-1.7h14.466a1.719,1.719,0,0,1,1.7,1.7v6.918A18.185,18.185,0,0,1,171,36.982a14.981,14.981,0,0,1-6.478,6.1,22.8,22.8,0,0,1-10.472,2.2q-9.183,0-13.962-4.622T135,28.114q-.064-1.571-.063-5.6t.063-5.6q.314-7.736,5.157-12.327T154.053,0Q160.719,0,164.839,2.138Z" style="fill:#ff4338"/><path d="M205.979,43.209,188.368,17.045V42.957a1.719,1.719,0,0,1-1.7,1.7h-5.095a1.719,1.719,0,0,1-1.7-1.7V2.327a1.631,1.631,0,0,1,.5-1.2,1.63,1.63,0,0,1,1.195-.5h4.4a2.935,2.935,0,0,1,2.453,1.446L206.042,28.24V2.327a1.633,1.633,0,0,1,.5-1.2,1.633,1.633,0,0,1,1.2-.5h5.094a1.635,1.635,0,0,1,1.2.5,1.636,1.636,0,0,1,.5,1.2v40.63a1.717,1.717,0,0,1-1.7,1.7h-4.4A2.929,2.929,0,0,1,205.979,43.209Z" style="fill:#ff4338"/><path d="M36.164,22.642q0,3.082-.126,4.654-.5,8.241-5.095,12.8t-13.4,4.56H1.7a1.63,1.63,0,0,1-1.2-.5,1.63,1.63,0,0,1-.5-1.2V2.327a1.633,1.633,0,0,1,.5-1.2,1.633,1.633,0,0,1,1.2-.5H17.233q8.994,0,13.648,4.56t5.157,12.8Q36.164,19.561,36.164,22.642ZM8.491,8.491v28.3h8.742q4.968,0,7.516-2.579a10.309,10.309,0,0,0,2.8-6.918q.125-1.571.126-4.654t-.126-4.654a10.165,10.165,0,0,0-2.861-6.918q-2.61-2.578-7.767-2.579Z" style="fill:#ff4338"/><path d="M312.163,4.717a18.152,18.152,0,0,1,5.031,12.327q.125,2.894.126,5.032,0,2.83-.126,6.227a18.072,18.072,0,0,1-5.031,12.264q-4.655,4.717-13.46,4.717t-13.46-4.717A18.066,18.066,0,0,1,280.212,28.3q-.126-3.4-.126-6.227,0-2.138.126-5.032a18.189,18.189,0,0,1,5.032-12.3Q289.9,0,298.7,0T312.163,4.717Zm-20.536,5.66a9.933,9.933,0,0,0-2.924,6.982q-.126,3.146-.126,5.283,0,2.2.126,5.346a9.813,9.813,0,0,0,2.924,6.95,11.319,11.319,0,0,0,14.152,0,9.819,9.819,0,0,0,2.924-6.95q.125-1.571.126-5.346,0-3.71-.126-5.283a9.939,9.939,0,0,0-2.924-6.982,11.21,11.21,0,0,0-14.152,0Z" style="fill:#ff4338"/><path d="M358.221,29.057a1.769,1.769,0,0,1,1.258.472,1.434,1.434,0,0,1,.441,1.226,15.233,15.233,0,0,1-2.3,6.982,15,15,0,0,1-6.164,5.441,22.452,22.452,0,0,1-10.283,2.107q-8.429,0-13.208-4.749t-5.283-12.61q-.126-3.144-.126-5.283t.126-5.283q.5-7.861,5.283-12.611T341.176,0A22.461,22.461,0,0,1,351.46,2.107a15.01,15.01,0,0,1,6.164,5.441,15.24,15.24,0,0,1,2.3,6.981,1.434,1.434,0,0,1-.441,1.226,1.768,1.768,0,0,1-1.258.472h-5.095a1.915,1.915,0,0,1-1.2-.44,1.835,1.835,0,0,1-.692-1.2,7.666,7.666,0,0,0-2.987-4.78q-2.485-1.948-7.075-1.95-4.655,0-7.2,2.642a10.4,10.4,0,0,0-2.8,6.856q-.126,3.146-.126,5.283t.126,5.283a10.4,10.4,0,0,0,2.8,6.856q2.547,2.642,7.2,2.642,4.59,0,7.107-1.95a7.627,7.627,0,0,0,3.019-4.78,1.89,1.89,0,0,1,.66-1.2,1.8,1.8,0,0,1,1.164-.44Z" style="fill:#ff4338"/><path d="M397.027,1.132a1.636,1.636,0,0,1,.5,1.2V6.793a1.717,1.717,0,0,1-1.7,1.7H384.51V42.957a1.719,1.719,0,0,1-1.7,1.7h-5.095a1.719,1.719,0,0,1-1.7-1.7V8.491H364.7a1.717,1.717,0,0,1-1.7-1.7V2.327a1.633,1.633,0,0,1,.5-1.2,1.632,1.632,0,0,1,1.2-.5h31.133A1.635,1.635,0,0,1,397.027,1.132Z" style="fill:#ff4338"/><path d="M432.713,4.717a18.152,18.152,0,0,1,5.031,12.327q.125,2.894.126,5.032,0,2.83-.126,6.227a18.072,18.072,0,0,1-5.031,12.264q-4.655,4.717-13.46,4.717t-13.46-4.717A18.066,18.066,0,0,1,400.762,28.3q-.126-3.4-.126-6.227,0-2.138.126-5.032a18.189,18.189,0,0,1,5.032-12.3Q410.446,0,419.253,0T432.713,4.717Zm-20.536,5.66a9.933,9.933,0,0,0-2.924,6.982q-.126,3.146-.126,5.283,0,2.2.126,5.346a9.813,9.813,0,0,0,2.924,6.95,11.319,11.319,0,0,0,14.152,0,9.819,9.819,0,0,0,2.924-6.95q.125-1.571.126-5.346,0-3.71-.126-5.283a9.939,9.939,0,0,0-2.924-6.982,11.21,11.21,0,0,0-14.152,0Z" style="fill:#ff4338"/><path d="M474.437,4.277q4.151,3.648,4.151,10.126a13.894,13.894,0,0,1-2.139,7.83,12.648,12.648,0,0,1-6.164,4.812l8.679,15.535a1.569,1.569,0,0,1,.189.692,1.4,1.4,0,0,1-1.383,1.384h-5.347a2.87,2.87,0,0,1-2.7-1.7L461.481,28.3h-8.365V42.957a1.719,1.719,0,0,1-1.7,1.7h-5.095a1.717,1.717,0,0,1-1.7-1.7V2.327a1.633,1.633,0,0,1,.5-1.2,1.633,1.633,0,0,1,1.2-.5H462.55Q470.286.629,474.437,4.277Zm-12.2,16.164a10.488,10.488,0,0,0,5.849-1.352Q470.1,17.737,470.1,14.4T468.116,9.78a10.883,10.883,0,0,0-5.881-1.289h-9.119v11.95Z" style="fill:#ff4338"/><path d="M274.715,17.987q-.5-8.238-5.155-12.8T255.915.627H240.376a1.626,1.626,0,0,0-1.192.5,1.642,1.642,0,0,0-.5,1.2V8.488H255.6q5.155,0,7.766,2.581a10.165,10.165,0,0,1,2.859,6.918c.088,1.053.124,2.6.124,4.658s-.037,3.605-.124,4.651a10.279,10.279,0,0,1-2.8,6.918q-2.545,2.578-7.51,2.581H238.679v6.164a1.723,1.723,0,0,0,1.7,1.7h15.854q8.8,0,13.4-4.563t5.09-12.8q.132-1.569.132-4.651T274.715,17.987Z" style="fill:#ff4338"/><path d="M246.026,32.589a1.113,1.113,0,0,1-1.1,1.1h-5.133a1.113,1.113,0,0,1-1.1-1.1V25.868H232.38a1.113,1.113,0,0,1-1.1-1.1V20.654a1.113,1.113,0,0,1,1.1-1.1h6.314V12.832a1.113,1.113,0,0,1,1.1-1.1h5.133a1.113,1.113,0,0,1,1.1,1.1v6.721H252.3a1.113,1.113,0,0,1,1.1,1.1v4.114a1.113,1.113,0,0,1-1.1,1.1h-6.273Z" style="fill:#ff4338"/></svg>