<svg xmlns="http://www.w3.org/2000/svg" viewBox="0 0 22.119 21.957"><title>plus</title><path d="M14.746,20.857a1.113,1.113,0,0,1-1.1,1.1H8.514a1.113,1.113,0,0,1-1.1-1.1V14.135H1.1a1.055,1.055,0,0,1-.774-.326A1.053,1.053,0,0,1,0,13.036V8.921a1.056,1.056,0,0,1,.326-.774A1.057,1.057,0,0,1,1.1,7.821H7.414V1.1A1.057,1.057,0,0,1,7.74.326,1.057,1.057,0,0,1,8.514,0h5.133a1.059,1.059,0,0,1,.774.326,1.059,1.059,0,0,1,.326.774V7.821h6.273a1.113,1.113,0,0,1,1.1,1.1v4.114a1.113,1.113,0,0,1-1.1,1.1H14.746Z" style="fill:#fff"/></svg>